{
	"asset":{
		"generator":"Khronos glTF Blender I/O v5.2.39",
		"version":"2.0"
	},
	"scene":0,
	"scenes":[
		{
			"name":"Scene",
			"nodes":[
				0,
				1,
				2,
				3,
				4,
				5,
				6,
				7
			]
		}
	],
	"nodes":[
		{
			"mesh":0,
			"name":"GREYBOX_Fuselage",
			"translation":[
				0,
				0,
				-20.7549991607666
			]
		},
		{
			"mesh":1,
			"name":"GREYBOX_HStab_L",
			"translation":[
				-3.8153998851776123,
				0.5454999804496765,
				-39.01940155029297
			]
		},
		{
			"mesh":2,
			"name":"GREYBOX_HStab_R",
			"translation":[
				3.8153998851776123,
				0.5454999804496765,
				-39.01940155029297
			]
		},
		{
			"mesh":3,
			"name":"GREYBOX_Nacelle_L",
			"translation":[
				-5.7947998046875,
				-1.100000023841858,
				-17.434200286865234
			]
		},
		{
			"mesh":4,
			"name":"GREYBOX_Nacelle_R",
			"translation":[
				5.7947998046875,
				-1.100000023841858,
				-17.434200286865234
			]
		},
		{
			"mesh":5,
			"name":"GREYBOX_VStab",
			"translation":[
				0,
				3.632124900817871,
				-39.01940155029297
			]
		},
		{
			"mesh":6,
			"name":"GREYBOX_Wing_L",
			"translation":[
				-9.610199928283691,
				0,
				-17.434200286865234
			]
		},
		{
			"mesh":7,
			"name":"GREYBOX_Wing_R",
			"translation":[
				9.610199928283691,
				0,
				-17.434200286865234
			]
		}
	],
	"meshes":[
		{
			"name":"Cylinder",
			"primitives":[
				{
					"attributes":{
						"POSITION":0,
						"NORMAL":1,
						"TEXCOORD_0":2
					},
					"indices":3
				}
			]
		},
		{
			"name":"Cube.003",
			"primitives":[
				{
					"attributes":{
						"POSITION":4,
						"NORMAL":5,
						"TEXCOORD_0":6
					},
					"indices":7
				}
			]
		},
		{
			"name":"Cube.004",
			"primitives":[
				{
					"attributes":{
						"POSITION":8,
						"NORMAL":9,
						"TEXCOORD_0":10
					},
					"indices":7
				}
			]
		},
		{
			"name":"Cylinder.001",
			"primitives":[
				{
					"attributes":{
						"POSITION":11,
						"NORMAL":12,
						"TEXCOORD_0":13
					},
					"indices":3
				}
			]
		},
		{
			"name":"Cylinder.002",
			"primitives":[
				{
					"attributes":{
						"POSITION":14,
						"NORMAL":15,
						"TEXCOORD_0":16
					},
					"indices":3
				}
			]
		},
		{
			"name":"Cube.005",
			"primitives":[
				{
					"attributes":{
						"POSITION":17,
						"NORMAL":18,
						"TEXCOORD_0":19
					},
					"indices":7
				}
			]
		},
		{
			"name":"Cube.001",
			"primitives":[
				{
					"attributes":{
						"POSITION":20,
						"NORMAL":21,
						"TEXCOORD_0":22
					},
					"indices":7
				}
			]
		},
		{
			"name":"Cube.002",
			"primitives":[
				{
					"attributes":{
						"POSITION":23,
						"NORMAL":24,
						"TEXCOORD_0":25
					},
					"indices":7
				}
			]
		}
	],
	"accessors":[
		{
			"bufferView":0,
			"componentType":5126,
			"count":192,
			"max":[
				1.6604000329971313,
				1.6604015827178955,
				20.7549991607666
			],
			"min":[
				-1.6604000329971313,
				-1.6604015827178955,
				-20.7549991607666
			],
			"type":"VEC3"
		},
		{
			"bufferView":1,
			"componentType":5126,
			"count":192,
			"type":"VEC3"
		},
		{
			"bufferView":2,
			"componentType":5126,
			"count":192,
			"type":"VEC2"
		},
		{
			"bufferView":3,
			"componentType":5123,
			"count":372,
			"type":"SCALAR"
		},
		{
			"bufferView":4,
			"componentType":5126,
			"count":24,
			"max":[
				1.0774999856948853,
				0.054999999701976776,
				0.4032602608203888
			],
			"min":[
				-1.0774999856948853,
				-0.054999999701976776,
				-0.4032602608203888
			],
			"type":"VEC3"
		},
		{
			"bufferView":5,
			"componentType":5126,
			"count":24,
			"type":"VEC3"
		},
		{
			"bufferView":6,
			"componentType":5126,
			"count":24,
			"type":"VEC2"
		},
		{
			"bufferView":7,
			"componentType":5123,
			"count":36,
			"type":"SCALAR"
		},
		{
			"bufferView":8,
			"componentType":5126,
			"count":24,
			"max":[
				1.0774999856948853,
				0.054999999701976776,
				0.4032602608203888
			],
			"min":[
				-1.0774999856948853,
				-0.054999999701976776,
				-0.4032602608203888
			],
			"type":"VEC3"
		},
		{
			"bufferView":9,
			"componentType":5126,
			"count":24,
			"type":"VEC3"
		},
		{
			"bufferView":10,
			"componentType":5126,
			"count":24,
			"type":"VEC2"
		},
		{
			"bufferView":11,
			"componentType":5126,
			"count":192,
			"max":[
				0.949999988079071,
				0.9500001072883606,
				1.7000001668930054
			],
			"min":[
				-0.949999988079071,
				-0.9500001072883606,
				-1.7000001668930054
			],
			"type":"VEC3"
		},
		{
			"bufferView":12,
			"componentType":5126,
			"count":192,
			"type":"VEC3"
		},
		{
			"bufferView":13,
			"componentType":5126,
			"count":192,
			"type":"VEC2"
		},
		{
			"bufferView":14,
			"componentType":5126,
			"count":192,
			"max":[
				0.949999988079071,
				0.9500001072883606,
				1.7000001668930054
			],
			"min":[
				-0.949999988079071,
				-0.9500001072883606,
				-1.7000001668930054
			],
			"type":"VEC3"
		},
		{
			"bufferView":15,
			"componentType":5126,
			"count":192,
			"type":"VEC3"
		},
		{
			"bufferView":16,
			"componentType":5126,
			"count":192,
			"type":"VEC2"
		},
		{
			"bufferView":17,
			"componentType":5126,
			"count":24,
			"max":[
				0.05999999865889549,
				1.400962471961975,
				0.5499003529548645
			],
			"min":[
				-0.05999999865889549,
				-1.400962471961975,
				-0.5499003529548645
			],
			"type":"VEC3"
		},
		{
			"bufferView":18,
			"componentType":5126,
			"count":24,
			"type":"VEC3"
		},
		{
			"bufferView":19,
			"componentType":5126,
			"count":24,
			"type":"VEC2"
		},
		{
			"bufferView":20,
			"componentType":5126,
			"count":24,
			"max":[
				3.974900007247925,
				0.07500000298023224,
				0.7332004308700562
			],
			"min":[
				-3.974900007247925,
				-0.07500000298023224,
				-0.7332004308700562
			],
			"type":"VEC3"
		},
		{
			"bufferView":21,
			"componentType":5126,
			"count":24,
			"type":"VEC3"
		},
		{
			"bufferView":22,
			"componentType":5126,
			"count":24,
			"type":"VEC2"
		},
		{
			"bufferView":23,
			"componentType":5126,
			"count":24,
			"max":[
				3.974900007247925,
				0.07500000298023224,
				0.7332004308700562
			],
			"min":[
				-3.974900007247925,
				-0.07500000298023224,
				-0.7332004308700562
			],
			"type":"VEC3"
		},
		{
			"bufferView":24,
			"componentType":5126,
			"count":24,
			"type":"VEC3"
		},
		{
			"bufferView":25,
			"componentType":5126,
			"count":24,
			"type":"VEC2"
		}
	],
	"bufferViews":[
		{
			"buffer":0,
			"byteLength":2304,
			"byteOffset":0,
			"target":34962
		},
		{
			"buffer":0,
			"byteLength":2304,
			"byteOffset":2304,
			"target":34962
		},
		{
			"buffer":0,
			"byteLength":1536,
			"byteOffset":4608,
			"target":34962
		},
		{
			"buffer":0,
			"byteLength":744,
			"byteOffset":6144,
			"target":34963
		},
		{
			"buffer":0,
			"byteLength":288,
			"byteOffset":6888,
			"target":34962
		},
		{
			"buffer":0,
			"byteLength":288,
			"byteOffset":7176,
			"target":34962
		},
		{
			"buffer":0,
			"byteLength":192,
			"byteOffset":7464,
			"target":34962
		},
		{
			"buffer":0,
			"byteLength":72,
			"byteOffset":7656,
			"target":34963
		},
		{
			"buffer":0,
			"byteLength":288,
			"byteOffset":7728,
			"target":34962
		},
		{
			"buffer":0,
			"byteLength":288,
			"byteOffset":8016,
			"target":34962
		},
		{
			"buffer":0,
			"byteLength":192,
			"byteOffset":8304,
			"target":34962
		},
		{
			"buffer":0,
			"byteLength":2304,
			"byteOffset":8496,
			"target":34962
		},
		{
			"buffer":0,
			"byteLength":2304,
			"byteOffset":10800,
			"target":34962
		},
		{
			"buffer":0,
			"byteLength":1536,
			"byteOffset":13104,
			"target":34962
		},
		{
			"buffer":0,
			"byteLength":2304,
			"byteOffset":14640,
			"target":34962
		},
		{
			"buffer":0,
			"byteLength":2304,
			"byteOffset":16944,
			"target":34962
		},
		{
			"buffer":0,
			"byteLength":1536,
			"byteOffset":19248,
			"target":34962
		},
		{
			"buffer":0,
			"byteLength":288,
			"byteOffset":20784,
			"target":34962
		},
		{
			"buffer":0,
			"byteLength":288,
			"byteOffset":21072,
			"target":34962
		},
		{
			"buffer":0,
			"byteLength":192,
			"byteOffset":21360,
			"target":34962
		},
		{
			"buffer":0,
			"byteLength":288,
			"byteOffset":21552,
			"target":34962
		},
		{
			"buffer":0,
			"byteLength":288,
			"byteOffset":21840,
			"target":34962
		},
		{
			"buffer":0,
			"byteLength":192,
			"byteOffset":22128,
			"target":34962
		},
		{
			"buffer":0,
			"byteLength":288,
			"byteOffset":22320,
			"target":34962
		},
		{
			"buffer":0,
			"byteLength":288,
			"byteOffset":22608,
			"target":34962
		},
		{
			"buffer":0,
			"byteLength":192,
			"byteOffset":22896,
			"target":34962
		}
	],
	"buffers":[
		{
			"byteLength":23088,
			"uri":"embraer_e195e2_greybox.bin"
		}
	]
}
